# xmcd
#
# Track frame offsets:
#	150
#	14206
#	30578
#	48721
#	62941
#	75459
#	93246
#	106101
#	121773
#	136689
#	153490
#	165450
#
# Disc length: 2462 seconds
#
# Revision: 1
# Processed by: cddbd v1.5.2PL0 Copyright (c) Steve Scherf et al.
# Submitted via: audiograbber 1.83.01
#
DISCID=90099c0c
DTITLE=Nový Rovnák - Zdaní klame
DYEAR=1999
DGENRE=country
TTITLE0=Volani
TTITLE1=Mracna
TTITLE2=Tak se divej
TTITLE3=Probuzena
TTITLE4=Brachovi
TTITLE5=Zdani klame
TTITLE6=Co na mne maji
TTITLE7=Pozhasinej
TTITLE8=Zlaty den
TTITLE9=Popojet dal
TTITLE10=Neutikam
TTITLE11=Byvaly svet
EXTD=
EXTT0=
EXTT1=
EXTT2=
EXTT3=
EXTT4=
EXTT5=
EXTT6=
EXTT7=
EXTT8=
EXTT9=
EXTT10=
EXTT11=
PLAYORDER=
